<svg width="237" height="237" viewBox="0 0 237 237" fill="none" xmlns="http://www.w3.org/2000/svg">
<path d="M169.25 149H158.585L154.805 145.355C168.035 129.965 176 109.985 176 88.25C176 39.785 136.715 0.5 88.25 0.5C39.785 0.5 0.5 39.785 0.5 88.25C0.5 136.715 39.785 176 88.25 176C109.985 176 129.965 168.035 145.355 154.805L149 158.585V169.25L216.5 236.615L236.615 216.5L169.25 149ZM88.25 149C54.635 149 27.5 121.865 27.5 88.25C27.5 54.635 54.635 27.5 88.25 27.5C121.865 27.5 149 54.635 149 88.25C149 121.865 121.865 149 88.25 149Z" fill="white"/>
</svg>
